<svg enable-background="new 0 0 469.785 469.785" viewBox="0 0 469.785 469.785" xmlns="http://www.w3.org/2000/svg"><path d="m228.294-151.753 139.195 139.195c11.116 11.105 11.116 29.116 0 40.22-11.105 11.116-29.104 11.116-40.22 0l-139.196-139.195-139.207 139.196c-11.093 11.116-29.116 11.116-40.22 0-11.105-11.105-11.105-29.116 0-40.22l139.207-139.196-139.515-139.515c-11.116-11.116-11.116-29.116 0-40.22 5.552-5.564 12.834-8.34 20.116-8.34 7.27 0 14.552 2.776 20.105 8.34l139.514 139.514 139.196-139.196c5.564-5.552 12.834-8.34 20.116-8.34 7.27 0 14.552 2.788 20.105 8.34 11.116 11.105 11.116 29.104 0 40.22z" fill="#34495e" transform="matrix(1.25 0 0 -1.25 0 45)"/></svg>