<svg width="32" height="19" xmlns="http://www.w3.org/2000/svg"><defs><filter x="-5.7%" width="111.4%" filterUnits="objectBoundingBox" id="a"><feOffset dy="5" in="SourceAlpha" result="shadowOffsetOuter1"/><feGaussianBlur stdDeviation="2" in="shadowOffsetOuter1" result="shadowBlurOuter1"/><feColorMatrix values="0 0 0 0 0 0 0 0 0 0 0 0 0 0 0 0 0 0 0.0983355978 0" in="shadowBlurOuter1" result="shadowMatrixOuter1"/><feMerge><feMergeNode in="shadowMatrixOuter1"/><feMergeNode in="SourceGraphic"/></feMerge></filter></defs><g filter="url(#a)" transform="translate(-264 -30)" fill="none" fill-rule="evenodd"><path d="M287.258 30h-14.516a4.759 4.759 0 0 0-2.815.91.348.348 0 0 0-.075.493c.119.156.344.19.504.073a4.034 4.034 0 0 1 2.386-.77h14.516c2.213 0 4.014 1.765 4.014 3.935v9.335c0 2.17-1.8 3.936-4.014 3.936h-14.516c-2.213 0-4.014-1.766-4.014-3.936v-9.335c0-.798.242-1.567.7-2.222a.349.349 0 0 0-.093-.49.364.364 0 0 0-.5.09 4.554 4.554 0 0 0-.827 2.622v9.335c0 2.56 2.124 4.641 4.734 4.641h14.516c2.61 0 4.734-2.082 4.734-4.64V34.64c0-2.559-2.124-4.641-4.734-4.641z" fill="#E63950"/><path d="M285.169 35.669a3.253 3.253 0 0 0-4.53 0l-.628.615a.022.022 0 0 1-.016.007.022.022 0 0 1-.016-.007l-.618-.605a3.253 3.253 0 0 0-4.53 0 3.101 3.101 0 0 0 0 4.442l4.64 4.548c.14.138.326.213.524.213a.745.745 0 0 0 .526-.213l2.55-2.5a.348.348 0 0 0-.001-.499.365.365 0 0 0-.509 0l-2.55 2.5a.022.022 0 0 1-.016.007.022.022 0 0 1-.016-.007l-4.64-4.548a2.404 2.404 0 0 1 0-3.444 2.522 2.522 0 0 1 3.513 0l.618.605c.14.137.327.213.525.213a.746.746 0 0 0 .525-.213l.628-.615a2.522 2.522 0 0 1 3.512 0c.969.95.969 2.494 0 3.444l-1.074 1.053a.348.348 0 0 0 0 .5c.14.137.368.137.509 0l1.074-1.054a3.101 3.101 0 0 0 0-4.442z" fill="#EC5569"/></g></svg>
