<svg width="32" height="28" xmlns="http://www.w3.org/2000/svg"><defs><filter x="-5.7%" width="111.4%" filterUnits="objectBoundingBox" id="a"><feOffset dy="5" in="SourceAlpha" result="shadowOffsetOuter1"/><feGaussianBlur stdDeviation="2" in="shadowOffsetOuter1" result="shadowBlurOuter1"/><feColorMatrix values="0 0 0 0 0 0 0 0 0 0 0 0 0 0 0 0 0 0 0.0983355978 0" in="shadowBlurOuter1" result="shadowMatrixOuter1"/><feMerge><feMergeNode in="shadowMatrixOuter1"/><feMergeNode in="SourceGraphic"/></feMerge></filter></defs><g filter="url(#a)" transform="translate(-264 -8)" fill="none" fill-rule="evenodd"><path d="M287.478 8h-14.956c-2.489 0-4.506 1.978-4.506 4.418v9.618c0 2.44 2.017 4.418 4.506 4.418h14.956c2.489 0 4.506-1.978 4.506-4.418v-9.618c0-2.44-2.017-4.418-4.506-4.418z" fill="#EC5569"/><path d="M272 25c-1-1-1.87-2.469-1.87-5.038V9.834c0-.435.056-.856.16-1.255-1.358.761-2.274 2.195-2.274 3.84v9.617c0 2.44 2.017 4.418 4.506 4.418h2.147c.035 0-.854-.485-2.669-1.454z" fill="#E63950"/><path d="M285.063 13.734a2.971 2.971 0 0 0-4.143 0l-.646.634a.4.4 0 0 1-.558 0l-.636-.624a2.971 2.971 0 0 0-4.143 0 2.833 2.833 0 0 0 0 4.062l4.78 4.687a.4.4 0 0 0 .557 0l4.79-4.697a2.833 2.833 0 0 0 0-4.062z" fill="#EC5569"/><path d="M285.063 13.734a2.971 2.971 0 0 0-4.143 0l-.646.634a.4.4 0 0 1-.558 0l-.636-.624a2.971 2.971 0 0 0-4.143 0 2.833 2.833 0 0 0 0 4.062l4.78 4.687a.4.4 0 0 0 .557 0l4.79-4.697a2.833 2.833 0 0 0 0-4.062z" fill="#FFF5F5"/><path d="M276.47 17.806a2.833 2.833 0 0 1 0-4.062 2.929 2.929 0 0 1 1.304-.74 2.968 2.968 0 0 0-2.837.74 2.833 2.833 0 0 0 0 4.062l4.78 4.687a.4.4 0 0 0 .557 0l.487-.478-4.292-4.209z" fill="#DCE6EB"/></g></svg>