<svg enable-background="new 0 0 512 512" viewBox="0 0 512 512" xmlns="http://www.w3.org/2000/svg"><path d="m407.252 8.241h-303.629c-50.527 0-91.487 40.961-91.487 91.487v199.144c0 50.528 40.961 91.487 91.487 91.487h43.575c2.073 0 3.753 1.681 3.753 3.753v98.233c0 11.615 14.207 17.246 22.163 8.784l103.067-109.59c.71-.755 1.699-1.182 2.735-1.182h128.335c50.528 0 91.487-40.961 91.487-91.487v-199.141c.003-50.528-40.958-91.488-91.486-91.488z" fill="#ec5569"/><path d="m189.442 356.215c0-2.183-1.627-3.952-3.634-3.952h-42.185c-48.915 0-88.569-43.133-88.569-96.341v-209.707c0-9.003 1.139-17.716 3.263-25.983-27.586 15.756-46.182 45.454-46.182 79.497v199.144c0 50.527 40.961 91.487 91.487 91.487h43.575c2.073 0 3.753 1.681 3.753 3.753v98.233c0 11.615 14.207 17.246 22.163 8.784l16.325-17.359v-127.556z" fill="#e63950"/><path d="m358.235 126.972c-23.228-23.228-60.888-23.228-84.116 0l-13.121 13.121c-3.128 3.128-8.201 3.128-11.33 0l-12.911-12.911c-23.228-23.228-60.888-23.228-84.116 0-23.228 23.228-23.228 60.888 0 84.116l97.035 97.035c3.128 3.128 8.201 3.128 11.33 0l97.229-97.245c23.228-23.228 23.228-60.888 0-84.116z" fill="#ec5569"/><path d="m358.235 126.972c-23.228-23.228-60.888-23.228-84.116 0l-13.121 13.121c-3.128 3.128-8.201 3.128-11.33 0l-12.911-12.911c-23.228-23.228-60.888-23.228-84.116 0-23.228 23.228-23.228 60.888 0 84.116l97.035 97.035c3.128 3.128 8.201 3.128 11.33 0l97.229-97.245c23.228-23.228 23.228-60.888 0-84.116z" fill="#fff5f5"/><path d="m183.755 211.298c-23.228-23.228-23.228-60.888 0-84.116 7.619-7.619 16.795-12.723 26.501-15.343-19.884-5.369-42.006-.266-57.614 15.343-23.228 23.228-23.228 60.888 0 84.116l97.035 97.035c3.128 3.128 8.201 3.128 11.33 0l9.89-9.892z" fill="#dce6eb"/><path d="m407.815 0h-303.63c-21.379 0-41.736 6.707-58.87 19.394-3.341 2.474-4.043 7.188-1.57 10.529 2.474 3.341 7.188 4.042 10.529 1.57 14.522-10.754 31.781-16.439 49.911-16.439h303.629c46.296 0 83.96 37.665 83.96 83.96v199.144c0 46.296-37.665 83.96-83.96 83.96h-128.334c-3.101 0-6.097 1.296-8.217 3.553l-103.068 109.59c-2.225 2.364-4.805 1.693-5.81 1.296-1.006-.398-3.345-1.676-3.345-4.924v-98.233c0-6.22-5.06-11.28-11.28-11.28h-43.575c-46.296 0-83.961-37.665-83.961-83.96v-199.146c0-17.032 5.069-33.429 14.66-47.417 2.35-3.429 1.477-8.113-1.951-10.464-3.427-2.351-8.114-1.476-10.464 1.951-11.316 16.506-17.298 35.846-17.298 55.93v199.144c0 54.596 44.418 99.014 99.015 99.014h39.801v94.461c0 8.398 5.044 15.824 12.851 18.918 2.461.975 5.017 1.449 7.543 1.449 5.489 0 10.84-2.237 14.78-6.425l101.95-108.402h126.704c54.596 0 99.014-44.418 99.014-99.014v-199.145c0-54.596-44.417-99.014-99.014-99.014z"/><path d="m331.001 227.529c-2.94 2.94-2.94 7.706.001 10.644 2.94 2.939 7.706 2.94 10.644-.001l22.473-22.476c26.124-26.125 26.124-68.636-.001-94.761-26.124-26.125-68.635-26.123-94.761 0l-13.119 13.12c-.035.035-.144.143-.344.143s-.307-.106-.342-.143l-12.911-12.91c-26.125-26.125-68.635-26.124-94.76 0-26.125 26.125-26.125 68.636 0 94.761l97.035 97.035c2.934 2.935 6.837 4.551 10.987 4.551s8.053-1.617 10.987-4.552l53.325-53.334c2.94-2.94 2.94-7.706-.001-10.644-2.94-2.939-7.707-2.94-10.644.001l-53.325 53.334c-.035.035-.143.142-.342.142-.201 0-.308-.106-.343-.143l-97.035-97.035c-20.256-20.256-20.256-53.215 0-73.472s53.215-20.255 73.471 0l12.91 12.91c2.934 2.936 6.837 4.552 10.987 4.552 4.151 0 8.052-1.616 10.988-4.551l13.12-13.12c20.26-20.255 53.216-20.254 73.472 0 20.256 20.256 20.256 53.214 0 73.472z"/></svg>